<svg width="21" height="23" viewBox="0 0 21 23" fill="none" xmlns="http://www.w3.org/2000/svg">
<path d="M1.895 5.95999L10.625 11.01L19.355 5.95999M10.625 21.08V11M19.625 15V6.99999C19.6246 6.64927 19.5321 6.3048 19.3565 6.00116C19.181 5.69751 18.9287 5.44536 18.625 5.26999L11.625 1.26999C11.321 1.09446 10.9761 1.00204 10.625 1.00204C10.2739 1.00204 9.92904 1.09446 9.625 1.26999L2.625 5.26999C2.32126 5.44536 2.06898 5.69751 1.89346 6.00116C1.71794 6.3048 1.62536 6.64927 1.625 6.99999V15C1.62536 15.3507 1.71794 15.6952 1.89346 15.9988C2.06898 16.3025 2.32126 16.5546 2.625 16.73L9.625 20.73C9.92904 20.9055 10.2739 20.9979 10.625 20.9979C10.9761 20.9979 11.321 20.9055 11.625 20.73L18.625 16.73C18.9287 16.5546 19.181 16.3025 19.3565 15.9988C19.5321 15.6952 19.6246 15.3507 19.625 15Z" stroke="#9F9F9F" stroke-width="2" stroke-linecap="round" stroke-linejoin="round"/>
</svg>
