<svg width="20" height="20" viewBox="0 0 20 20" fill="none" xmlns="http://www.w3.org/2000/svg">
<path fill-rule="evenodd" clip-rule="evenodd" d="M8.59775 14.8331C9.00732 15.0107 9.47606 15.0994 10.004 15.0994C10.5296 15.0994 10.9948 15.0107 11.3996 14.8331C11.8068 14.6555 12.1264 14.4129 12.3584 14.1051C12.5904 13.795 12.7064 13.4434 12.7064 13.0504C12.7064 12.745 12.6378 12.4645 12.5005 12.2088C12.3655 11.9531 12.1832 11.7401 11.9536 11.5696C11.7263 11.3968 11.4706 11.2867 11.1865 11.2393V11.1896C11.5535 11.1068 11.853 10.9162 12.085 10.6179C12.3193 10.3172 12.4365 9.9704 12.4365 9.57741C12.4365 9.20336 12.33 8.86955 12.1169 8.57599C11.9062 8.28243 11.6174 8.05161 11.2505 7.88352C10.8859 7.71307 10.4704 7.62784 10.004 7.62784C9.53288 7.62784 9.11385 7.71307 8.7469 7.88352C8.37995 8.05161 8.09112 8.28243 7.88042 8.57599C7.66972 8.86955 7.56555 9.20336 7.56792 9.57741C7.56555 9.9704 7.67919 10.3172 7.90883 10.6179C8.14084 10.9162 8.44387 11.1068 8.81792 11.1896V11.2393C8.53383 11.2867 8.27578 11.3968 8.04377 11.5696C7.81413 11.7401 7.63184 11.9531 7.4969 12.2088C7.36196 12.4645 7.29567 12.745 7.29803 13.0504C7.29567 13.4434 7.4093 13.795 7.63894 14.1051C7.87095 14.4129 8.19055 14.6555 8.59775 14.8331ZM10.7142 13.9453C10.513 14.0376 10.2763 14.0838 10.004 14.0838C9.72938 14.0838 9.49027 14.0365 9.28667 13.9418C9.08544 13.8471 8.92919 13.7157 8.81792 13.5476C8.70665 13.3771 8.6522 13.1806 8.65457 12.9581C8.6522 12.7261 8.70902 12.5213 8.82502 12.3437C8.94339 12.1638 9.10438 12.023 9.30798 11.9212C9.51158 11.8194 9.74358 11.7685 10.004 11.7685C10.262 11.7685 10.4917 11.8194 10.6929 11.9212C10.8965 12.023 11.0563 12.1638 11.1723 12.3437C11.2907 12.5213 11.3511 12.7261 11.3534 12.9581C11.3511 13.1806 11.2942 13.3771 11.183 13.5476C11.0717 13.718 10.9155 13.8506 10.7142 13.9453ZM10.5935 10.6357C10.423 10.7256 10.2265 10.7706 10.004 10.7706C9.7791 10.7706 9.57905 10.7256 9.40386 10.6357C9.23104 10.5433 9.09491 10.4178 8.99548 10.2592C8.89841 10.0982 8.85106 9.9124 8.85343 9.7017C8.85106 9.49337 8.89723 9.31108 8.99193 9.15483C9.08899 8.99621 9.22393 8.87429 9.39676 8.78906C9.57195 8.70146 9.77436 8.65767 10.004 8.65767C10.2289 8.65767 10.4278 8.70146 10.6006 8.78906C10.7734 8.87429 10.9084 8.99621 11.0054 9.15483C11.1025 9.31108 11.1522 9.49337 11.1546 9.7017C11.1522 9.9124 11.1013 10.0982 11.0019 10.2592C10.9024 10.4202 10.7663 10.5457 10.5935 10.6357Z" fill="black"/>
<path fill-rule="evenodd" clip-rule="evenodd" d="M5.75 1C5.75 0.585786 5.41421 0.25 5 0.25C4.58579 0.25 4.25 0.585786 4.25 1H4C1.79086 1 0 2.79086 0 5V16C0 18.2091 1.79086 20 4 20H16C18.2091 20 20 18.2091 20 16V5C20 2.79086 18.2091 1 16 1H15.75C15.75 0.585786 15.4142 0.25 15 0.25C14.5858 0.25 14.25 0.585786 14.25 1H5.75ZM14.25 4V2.5H5.75V4C5.75 4.41421 5.41421 4.75 5 4.75C4.58579 4.75 4.25 4.41421 4.25 4V2.5H4C2.61929 2.5 1.5 3.61929 1.5 5V16C1.5 17.3807 2.61929 18.5 4 18.5H16C17.3807 18.5 18.5 17.3807 18.5 16V5C18.5 3.61929 17.3807 2.5 16 2.5H15.75V4C15.75 4.41421 15.4142 4.75 15 4.75C14.5858 4.75 14.25 4.41421 14.25 4Z" fill="black"/>
</svg>
