<svg width="21" height="17" viewBox="0 0 21 17" fill="none" xmlns="http://www.w3.org/2000/svg">
<path d="M16.5 0.75C16.9142 0.75 17.25 1.08579 17.25 1.5V2.75H18.5C18.9142 2.75 19.25 3.08579 19.25 3.5C19.25 3.91421 18.9142 4.25 18.5 4.25H17.25V5.5C17.25 5.91421 16.9142 6.25 16.5 6.25C16.0858 6.25 15.75 5.91421 15.75 5.5V4.25H14.5C14.0858 4.25 13.75 3.91421 13.75 3.5C13.75 3.08579 14.0858 2.75 14.5 2.75H15.75V1.5C15.75 1.08579 16.0858 0.75 16.5 0.75Z" fill="#476CD4"/>
<path d="M6 7C6.82843 7 7.5 6.32843 7.5 5.5C7.5 4.67157 6.82843 4 6 4C5.17157 4 4.5 4.67157 4.5 5.5C4.5 6.32843 5.17157 7 6 7Z" fill="#476CD4"/>
<path fill-rule="evenodd" clip-rule="evenodd" d="M2.2435 14.0775C2.08741 13.7513 2 13.3858 2 13V5C2 3.61929 3.11929 2.5 4.5 2.5H12.75C13.1642 2.5 13.5 2.16421 13.5 1.75C13.5 1.33579 13.1642 1 12.75 1H4.5C2.29086 1 0.5 2.79086 0.5 5V13C0.5 15.2091 2.29086 17 4.5 17H16.5C18.7091 17 20.5 15.2091 20.5 13V5.75C20.5 5.33579 20.1642 5 19.75 5C19.3358 5 19 5.33579 19 5.75V13C19 13.3572 18.9251 13.6969 18.7901 14.0042L15.2833 7.94697C14.3097 6.26533 11.8231 6.45705 11.1188 8.26807L10.0152 11.1058C9.74652 11.7968 8.80094 11.8772 8.41949 11.2414C7.53781 9.77195 5.44223 9.67929 4.43431 11.0652L2.2435 14.0775ZM12.5168 8.81174C12.7651 8.1732 13.6419 8.1056 13.9852 8.69853L17.7344 15.1745C17.3702 15.3817 16.9489 15.5 16.5 15.5H4.5C4.0612 15.5 3.64881 15.387 3.29036 15.1884L5.64741 11.9474C6.02321 11.4307 6.80452 11.4653 7.13325 12.0131C8.15635 13.7183 10.6925 13.5028 11.4132 11.6495L12.5168 8.81174Z" fill="#476CD4"/>
</svg>
